<svg width="17" height="24" viewBox="0 0 17 24" fill="none" xmlns="http://www.w3.org/2000/svg">
<path fill-rule="evenodd" clip-rule="evenodd" d="M8.25681 0.0475347C8.41153 -0.0158449 8.58853 -0.0158449 8.74324 0.0475347C9.75472 0.461901 10.661 1.11026 11.3665 1.75768C11.8916 2.23959 12.3285 2.74223 12.6224 3.17742C14.2506 2.8108 15.6986 2.92682 16.5166 3.07467C16.7887 3.12384 16.9872 3.33827 16.9951 3.59134C17.0858 6.50895 15.8984 8.56039 15.0617 9.45822C15.5489 11.5247 14.9364 13.0961 13.9122 14.2075C13.0107 15.1856 11.8146 15.7836 10.8466 16.0801V23.4576C10.8466 23.7572 10.5806 24 10.2525 24H6.74749C6.41938 24 6.1534 23.7572 6.1534 23.4576V16.0801C5.18538 15.7836 3.98929 15.1856 3.08784 14.2075C2.06361 13.0961 1.45105 11.5247 1.93832 9.45822C1.10159 8.56039 -0.0857613 6.50895 0.00489871 3.59134C0.0127624 3.33827 0.211347 3.12384 0.483372 3.07467C1.48994 2.89275 3.04114 2.88022 4.59513 3.38752C4.85757 2.95905 5.23156 2.43708 5.69962 1.9233C6.35071 1.2086 7.21639 0.47376 8.25681 0.0475347ZM5.65874 3.8739C6.32505 4.34235 6.79342 5.10886 7.01506 6.04293C7.07428 6.29251 7.11681 6.55666 7.14131 6.83439C8.33011 5.18856 9.76386 4.19311 11.1939 3.62005C11.2792 3.58589 11.3643 3.55327 11.4492 3.52215C11.2214 3.22347 10.9082 2.87517 10.5242 2.52274C9.95067 1.99646 9.2521 1.4916 8.50272 1.14455C7.78634 1.49046 7.14304 2.03525 6.61313 2.61693C6.20807 3.06156 5.88473 3.51068 5.65874 3.8739ZM5.65164 9.53304C6.0328 8.20715 6.05109 7.1039 5.85383 6.2726C5.62606 5.3127 5.13089 4.77098 4.63474 4.56956C3.40209 4.06915 2.11502 3.98803 1.18974 4.0747C1.23611 6.54306 2.29068 8.18507 2.87969 8.79393C3.66634 8.91295 4.64833 9.1494 5.65164 9.53304ZM3.04863 9.92569C2.73924 11.5355 3.24394 12.692 3.99699 13.5091C4.82573 14.4083 5.98847 14.9285 6.82301 15.1322H9.62736C9.46286 13.7218 8.66038 12.6448 7.58507 11.8269C7.03113 11.4056 6.40927 11.0573 5.77629 10.7749C5.77129 10.7728 5.76633 10.7706 5.76142 10.7683C4.81827 10.3492 3.85144 10.0762 3.04863 9.92569ZM10.7994 14.9397C11.5307 14.668 12.3656 14.2007 13.003 13.5091C13.7762 12.6702 14.2875 11.4735 13.9248 9.7958C11.1365 9.55526 9.46585 10.5951 8.76132 11.3317C9.80367 12.24 10.602 13.4293 10.7994 14.9397ZM7.84576 10.6401C8.81055 9.61683 10.9116 8.40512 14.181 8.72926C14.7792 8.07368 15.7667 6.45829 15.8103 4.07013C14.8253 3.96032 13.2696 3.97293 11.6715 4.61333C9.8902 5.32712 7.98435 6.84898 6.75594 10.0162C7.1282 10.2015 7.4945 10.409 7.84576 10.6401ZM9.65843 16.2169H7.34157V17.5412L9.65843 19.0828V16.2169ZM9.65843 20.425L7.34157 18.8834V18.9116L9.65843 21.2778V20.425ZM9.65843 22.9054L7.34157 20.5392V22.9153H9.65843V22.9054Z" fill="#F4683F"/>
</svg>
