<svg width="21" height="19" viewBox="0 0 21 19" fill="none" xmlns="http://www.w3.org/2000/svg">
<path fill-rule="evenodd" clip-rule="evenodd" d="M14.9076 0.00239519C14.8904 0.00431388 14.8322 0.0102175 14.7782 0.0155048C14.3581 0.0566306 13.9232 0.20753 13.5693 0.43495C13.1706 0.691082 12.871 1.02045 12.6533 1.4419C12.4829 1.77158 12.4312 1.97629 12.3996 2.44565C12.3939 2.53033 12.3881 3.06727 12.3854 3.75878L12.3809 4.92866H8.50077H4.62062L4.62082 3.96281C4.6211 2.5485 4.63288 2.30832 4.71314 2.07965C4.75232 1.96805 4.80443 1.88178 4.89057 1.78594C5.07389 1.58199 5.302 1.42754 5.52398 1.35705C5.64702 1.31799 5.71676 1.3071 5.87509 1.30222C6.05723 1.29662 6.15021 1.30906 6.30774 1.36013C6.51317 1.42673 6.69362 1.53142 6.84276 1.67055C7.05947 1.87271 7.15126 2.07204 7.22101 2.49194C7.25715 2.70957 7.30175 2.83358 7.38205 2.93972C7.4871 3.07859 7.64135 3.14442 7.88604 3.1548C8.04814 3.16168 8.13915 3.14939 8.22303 3.10929C8.30519 3.07003 8.40976 2.98844 8.47205 2.915C8.58545 2.7813 8.59423 2.74444 8.58801 2.42829C8.58226 2.13616 8.55877 1.98575 8.48279 1.75448C8.22778 0.978277 7.55962 0.357656 6.72252 0.119461C6.45638 0.0437294 6.25821 0.0153311 5.94966 0.00868952C5.69223 0.00315051 5.53949 0.0128308 5.37409 0.0451966C4.75921 0.165492 4.19687 0.499786 3.79698 0.982765C3.68192 1.12174 3.57369 1.29021 3.47073 1.49065C3.34684 1.73182 3.31843 1.81998 3.28748 2.05931C3.22929 2.50931 3.22327 3.19218 3.23691 7.79258L3.24728 11.2859L3.30978 11.3753C3.37998 11.4756 3.46825 11.5615 3.56156 11.6203C3.65378 11.6783 3.70837 11.6922 3.86672 11.6979C4.0484 11.7044 4.14225 11.6925 4.22603 11.6523C4.35001 11.5929 4.4978 11.4563 4.55182 11.3512C4.56475 11.3261 4.57956 11.2801 4.5847 11.249C4.59913 11.162 4.61001 10.8773 4.62105 10.2985C4.6266 10.0072 4.63303 9.76598 4.63534 9.76235C4.63764 9.75873 6.37926 9.75576 8.50562 9.75576H12.3717L12.3774 10.001C12.3806 10.1359 12.3871 10.4319 12.392 10.6587C12.4013 11.0908 12.4097 11.2261 12.4316 11.2981C12.4687 11.4194 12.6432 11.5941 12.7942 11.6609C12.8614 11.6906 12.9786 11.7039 13.1187 11.6977C13.3849 11.6858 13.5196 11.6144 13.6727 11.4043C13.7123 11.3499 13.7477 11.3005 13.7513 11.2944C13.755 11.2883 13.7675 9.23833 13.7791 6.73886L13.8002 2.19439L13.886 2.03569C13.9838 1.85481 14.0628 1.74764 14.1695 1.65116C14.5199 1.33438 15.0247 1.22474 15.4875 1.36491C15.7038 1.43043 15.9247 1.57316 16.0705 1.7416C16.2425 1.94038 16.3229 2.13756 16.3798 2.50096C16.4391 2.87884 16.5737 3.06048 16.8481 3.13288C16.9086 3.14884 16.9433 3.15172 17.0756 3.15172C17.2554 3.15172 17.3243 3.13835 17.4351 3.08198C17.5506 3.02326 17.6979 2.85543 17.7332 2.74236C17.7545 2.67419 17.7539 2.31719 17.7322 2.15915C17.6603 1.63473 17.4208 1.17476 17.0135 0.778378C16.576 0.352664 16.0487 0.100578 15.425 0.0189601C15.3277 0.00622388 14.9744 -0.00508855 14.9076 0.00239519ZM12.3827 7.34221V8.45348H8.50165H4.62062V7.34221V6.23093H8.50165H12.3827V7.34221ZM7.16782 12.7694C7.05736 12.7798 6.96986 12.8177 6.84217 12.9105C6.7448 12.9812 6.6833 13.0351 6.43949 13.2634C6.32974 13.3662 6.20783 13.477 6.16857 13.5096C5.90613 13.728 5.45714 13.9289 4.97311 14.0446C4.21844 14.2251 3.37441 14.1977 2.65335 13.9692C2.29706 13.8563 1.9887 13.7052 1.7314 13.5175C1.59968 13.4213 1.42164 13.2532 1.31512 13.1243C1.09698 12.8604 0.97521 12.7946 0.663764 12.7723C0.616719 12.7689 0.561296 12.7705 0.529936 12.776C0.40453 12.7981 0.214788 12.9204 0.113587 13.0443C0.0444691 13.129 0.0195057 13.1786 0.00719346 13.2559C-0.00673361 13.3432 0.00083215 13.5857 0.019006 13.6345C0.0774444 13.7915 0.380271 14.1301 0.703547 14.3999C1.21474 14.8266 1.73924 15.0926 2.43318 15.2769C2.96236 15.4175 3.33912 15.4621 3.99609 15.4619C4.45621 15.4617 4.75579 15.4374 5.04146 15.377C5.78555 15.2196 6.31151 15.0108 6.89124 14.6425C7.19337 14.4505 7.22239 14.4399 7.31737 14.4861C7.34798 14.501 7.40916 14.539 7.45332 14.5705C7.79581 14.8147 8.13926 14.9908 8.5923 15.1546C9.019 15.3088 9.41775 15.3974 9.87562 15.4398C10.114 15.4618 10.8863 15.4618 11.1247 15.4398C11.4272 15.4118 11.6007 15.3831 11.8741 15.3159C12.4875 15.1651 13.0006 14.9414 13.4756 14.6176C13.559 14.5608 13.6522 14.5018 13.6827 14.4866C13.7781 14.4391 13.7939 14.4448 14.0957 14.6347C14.3084 14.7686 14.4272 14.836 14.6087 14.9258C15.5577 15.3953 16.7364 15.5749 17.8518 15.4199C18.6135 15.314 19.3344 15.06 19.8949 14.7001C20.3116 14.4325 20.8265 13.9385 20.9641 13.6742C20.9933 13.6182 21.0039 13.5267 20.9987 13.3761C20.9934 13.2212 20.9829 13.1792 20.929 13.0981C20.8248 12.9412 20.6837 12.8379 20.5118 12.7926C20.4146 12.767 20.2311 12.7672 20.133 12.793C19.9931 12.8298 19.9341 12.872 19.7247 13.0852C19.2287 13.5904 18.9375 13.7781 18.3705 13.9584C18.0883 14.0481 17.7958 14.1107 17.4994 14.1447C17.3318 14.1639 16.8945 14.1714 16.7216 14.1581C16.1926 14.1172 15.7127 13.99 15.2509 13.7682C14.9784 13.6374 14.8845 13.5681 14.5327 13.2381C14.1073 12.839 13.9919 12.7679 13.77 12.7677C13.5411 12.7675 13.4376 12.8337 12.9458 13.2949C12.6381 13.5834 12.5466 13.649 12.2622 13.7842C11.6651 14.0683 11.2741 14.1485 10.4868 14.1486C10.0009 14.1487 9.66881 14.1136 9.37309 14.0307C9.08721 13.9507 8.67224 13.771 8.46506 13.6375C8.34367 13.5593 8.25406 13.4839 8.01094 13.2553C7.77754 13.0359 7.71934 12.9845 7.62521 12.9145C7.46187 12.7932 7.33668 12.7535 7.16782 12.7694ZM0.538858 16.3021C0.379709 16.3263 0.179136 16.4663 0.0696378 16.6295C0.00686336 16.7231 0.00358009 16.7389 0.00356225 16.9487C0.00354441 17.1296 0.00373176 17.1314 0.0281777 17.1822C0.146669 17.4283 0.592398 17.871 1.02813 18.1753C1.24343 18.3257 1.5339 18.4832 1.7975 18.5925C2.13452 18.7322 2.6416 18.8723 3.01202 18.928C3.43127 18.9911 4.06553 19.0089 4.54732 18.9711C4.77362 18.9534 4.88253 18.9377 5.08902 18.8932C5.79038 18.742 6.33617 18.5228 6.89124 18.1691C7.07865 18.0498 7.21622 17.9954 7.28997 18.0116C7.32832 18.02 7.3122 18.0108 7.49841 18.1306C7.93616 18.4122 8.37092 18.6236 8.77147 18.7494C9.27258 18.9068 9.84528 18.9847 10.4992 18.9845C11.4233 18.9842 12.1849 18.8257 12.8734 18.4904C13.0663 18.3965 13.1784 18.3321 13.4358 18.1677C13.654 18.0283 13.7295 17.9861 13.7609 17.9861C13.8027 17.9861 13.8601 18.0145 14.018 18.1133C14.4572 18.3881 14.7206 18.5226 15.0793 18.6553C16.3827 19.1373 17.9277 19.1125 19.1915 18.5893C19.7349 18.3643 20.13 18.1041 20.5556 17.6911C20.7115 17.5398 20.8325 17.4017 20.9154 17.2805C20.9943 17.1651 20.9958 17.1591 20.9963 16.9487C20.9968 16.7379 20.9938 16.7236 20.9287 16.6266C20.8424 16.4979 20.7082 16.3912 20.5659 16.3379C20.4653 16.3002 20.3993 16.2901 20.2893 16.2953C20.0705 16.3056 19.9035 16.4001 19.7033 16.6268C19.498 16.8594 19.2767 17.0456 19.0387 17.1862C18.6053 17.4421 18.1088 17.6013 17.5306 17.6699C17.3697 17.689 16.8978 17.6965 16.7211 17.6829C16.1739 17.6406 15.6413 17.4963 15.1931 17.2688C14.9655 17.1534 14.8487 17.0637 14.5116 16.7455C14.224 16.4741 14.0812 16.3656 13.9484 16.3179C13.9034 16.3017 13.8759 16.2985 13.7745 16.2981C13.6714 16.2976 13.6456 16.3004 13.5953 16.3173C13.4588 16.3632 13.326 16.4643 13.0085 16.7642C12.6384 17.1138 12.5277 17.1928 12.1998 17.3413C11.7107 17.5627 11.4027 17.6383 10.8793 17.6657C10.6599 17.6771 10.1253 17.6718 9.95145 17.6564C9.50795 17.6171 9.19146 17.5261 8.72915 17.3049C8.43719 17.1653 8.34515 17.0978 7.99028 16.7631C7.55143 16.3493 7.44454 16.2857 7.20351 16.2954C7.12696 16.2985 7.09257 16.3042 7.04716 16.3212C6.90854 16.3732 6.77589 16.4728 6.51206 16.7229C6.1368 17.0788 6.02529 17.1635 5.76495 17.2905C4.69805 17.8109 3.2799 17.8236 2.20576 17.3222C1.83394 17.1487 1.53815 16.9251 1.30946 16.6448C1.12874 16.4233 1.00234 16.3425 0.788671 16.3118C0.69616 16.2986 0.589374 16.2944 0.538858 16.3021Z" fill="#F4683F"/>
</svg>
