<svg width="34" height="36" viewBox="0 0 34 36" fill="none" xmlns="http://www.w3.org/2000/svg">
<path d="M33.6693 25.3393C33.6685 27.6185 32.8894 29.8292 31.461 31.6053C30.0325 33.3814 28.0404 34.6164 25.8143 35.1059L24.7509 31.9159C25.7247 31.7556 26.6507 31.3812 27.4623 30.8198C28.2738 30.2583 28.9508 29.5239 29.4443 28.6693H25.3359C24.4519 28.6693 23.604 28.3181 22.9789 27.693C22.3538 27.0678 22.0026 26.22 22.0026 25.3359V18.6693C22.0026 17.7852 22.3538 16.9374 22.9789 16.3122C23.604 15.6871 24.4519 15.3359 25.3359 15.3359H30.2326C29.8259 12.1141 28.2575 9.15139 25.8216 7.00373C23.3858 4.85607 20.25 3.67106 17.0026 3.67106C13.7552 3.67106 10.6194 4.85607 8.18356 7.00373C5.74774 9.15139 4.17932 12.1141 3.7726 15.3359H8.66927C9.55333 15.3359 10.4012 15.6871 11.0263 16.3122C11.6514 16.9374 12.0026 17.7852 12.0026 18.6693V25.3359C12.0026 26.22 11.6514 27.0678 11.0263 27.693C10.4012 28.3181 9.55333 28.6693 8.66927 28.6693H3.66927C2.78522 28.6693 1.93737 28.3181 1.31225 27.693C0.687127 27.0678 0.335938 26.22 0.335938 25.3359V17.0026C0.335938 7.79761 7.79761 0.335938 17.0026 0.335938C26.2076 0.335938 33.6693 7.79761 33.6693 17.0026V25.3393ZM30.3359 25.3359V18.6693H25.3359V25.3359H30.3359ZM3.66927 18.6693V25.3359H8.66927V18.6693H3.66927Z" fill="#F4683F"/>
</svg>
