<svg width="31" height="36" viewBox="0 0 31 36" fill="none" xmlns="http://www.w3.org/2000/svg">
<path d="M23.7324 25.0957L24.0257 25.3907L24.3224 25.0957C24.6706 24.7475 25.084 24.4713 25.539 24.2828C25.994 24.0944 26.4816 23.9974 26.9741 23.9974C27.4665 23.9974 27.9542 24.0944 28.4091 24.2828C28.8641 24.4713 29.2775 24.7475 29.6257 25.0957C29.974 25.4439 30.2502 25.8573 30.4386 26.3123C30.6271 26.7673 30.7241 27.2549 30.7241 27.7474C30.7241 28.2399 30.6271 28.7275 30.4386 29.1825C30.2502 29.6374 29.974 30.0508 29.6257 30.3991L24.0257 35.9974L18.4291 30.3991C17.7258 29.6958 17.3307 28.742 17.3307 27.7474C17.3307 26.7528 17.7258 25.799 18.4291 25.0957C19.1323 24.3925 20.0862 23.9974 21.0807 23.9974C22.0753 23.9974 23.0291 24.3925 23.7324 25.0957ZM13.9974 22.3307V25.6641C11.3452 25.6641 8.80169 26.7176 6.92633 28.593C5.05096 30.4684 3.9974 33.0119 3.9974 35.6641H0.664062C0.664103 32.2 2.01229 28.872 4.42318 26.3846C6.83407 23.8971 10.1184 22.4456 13.5807 22.3374L13.9974 22.3307ZM13.9974 0.664062C19.5224 0.664062 23.9974 5.13906 23.9974 10.6641C23.9983 13.2516 22.9959 15.7387 21.2009 17.6024C19.4059 19.4661 16.9582 20.5612 14.3724 20.6574L13.9974 20.6641C8.4724 20.6641 3.9974 16.1891 3.9974 10.6641C3.99647 8.07651 4.9989 5.58941 6.7939 3.72571C8.58891 1.86201 11.0366 0.766932 13.6224 0.670729L13.9974 0.664062ZM13.9974 3.9974C10.3141 3.9974 7.33073 6.98073 7.33073 10.6641C7.33073 14.3474 10.3141 17.3307 13.9974 17.3307C17.6807 17.3307 20.6641 14.3474 20.6641 10.6641C20.6641 6.98073 17.6807 3.9974 13.9974 3.9974Z" fill="#F4683F"/>
</svg>
