<svg width="22" height="22" viewBox="0 0 22 22" fill="none" xmlns="http://www.w3.org/2000/svg">
<path d="M10.6748 7.50675C9.83434 7.50675 9.02828 7.84063 8.43396 8.43494C7.83965 9.02925 7.50577 9.83531 7.50577 10.6758C7.50577 11.5163 7.83965 12.3223 8.43396 12.9167C9.02828 13.511 9.83434 13.8448 10.6748 13.8448C11.5153 13.8448 12.3214 13.511 12.9157 12.9167C13.51 12.3223 13.8439 11.5163 13.8439 10.6758C13.8439 9.83531 13.51 9.02925 12.9157 8.43494C12.3214 7.84063 11.5153 7.50675 10.6748 7.50675ZM10.6748 5.39405C12.0756 5.39405 13.4191 5.95052 14.4096 6.94104C15.4001 7.93156 15.9566 9.27499 15.9566 10.6758C15.9566 12.0766 15.4001 13.42 14.4096 14.4106C13.4191 15.4011 12.0756 15.9575 10.6748 15.9575C9.27401 15.9575 7.93058 15.4011 6.94006 14.4106C5.94954 13.42 5.39307 12.0766 5.39307 10.6758C5.39307 9.27499 5.94954 7.93156 6.94006 6.94104C7.93058 5.95052 9.27401 5.39405 10.6748 5.39405ZM17.5411 5.12996C17.5411 5.48016 17.402 5.81602 17.1543 6.06365C16.9067 6.31128 16.5709 6.4504 16.2207 6.4504C15.8704 6.4504 15.5346 6.31128 15.287 6.06365C15.0393 5.81602 14.9002 5.48016 14.9002 5.12996C14.9002 4.77976 15.0393 4.4439 15.287 4.19627C15.5346 3.94864 15.8704 3.80953 16.2207 3.80953C16.5709 3.80953 16.9067 3.94864 17.1543 4.19627C17.402 4.4439 17.5411 4.77976 17.5411 5.12996ZM10.6748 2.225C8.06141 2.225 7.63465 2.2324 6.41879 2.28627C5.59061 2.32536 5.03497 2.43627 4.51947 2.63698C4.06102 2.81445 3.73038 3.02677 3.37862 3.37959C3.04799 3.69903 2.79377 4.08902 2.63495 4.52045C2.43424 5.03806 2.32332 5.59264 2.28529 6.41977C2.23036 7.58598 2.22403 7.99373 2.22403 10.6758C2.22403 13.2892 2.23142 13.716 2.28529 14.9318C2.32438 15.7589 2.4353 16.3156 2.63495 16.8301C2.81453 17.2896 3.0258 17.6202 3.3765 17.9709C3.73249 18.3259 4.06313 18.5382 4.51736 18.7136C5.0392 18.9153 5.59484 19.0273 6.41879 19.0653C7.585 19.1203 7.99275 19.1266 10.6748 19.1266C13.2882 19.1266 13.715 19.1192 14.9308 19.0653C15.7569 19.0262 16.3136 18.9153 16.8291 18.7157C17.2865 18.5371 17.6193 18.3248 17.97 17.9741C18.326 17.6181 18.5383 17.2875 18.7136 16.8333C18.9143 16.3125 19.0263 15.7558 19.0643 14.9318C19.1193 13.7656 19.1256 13.3579 19.1256 10.6758C19.1256 8.06239 19.1182 7.63562 19.0643 6.41977C19.0253 5.5937 18.9143 5.03595 18.7136 4.52045C18.5544 4.08946 18.3007 3.69962 17.971 3.37959C17.6517 3.04879 17.2617 2.79455 16.8302 2.63592C16.3126 2.43522 15.7569 2.3243 14.9308 2.28627C13.7646 2.23134 13.3569 2.225 10.6748 2.225ZM10.6748 0.112305C13.5449 0.112305 13.903 0.122868 15.0291 0.175686C16.1541 0.228503 16.92 0.404914 17.5939 0.666888C18.2911 0.935201 18.8784 1.29858 19.4658 1.88486C20.0029 2.41292 20.4185 3.05169 20.6837 3.75671C20.9446 4.4296 21.1221 5.19651 21.1749 6.32152C21.2246 7.44759 21.2383 7.8057 21.2383 10.6758C21.2383 13.5459 21.2277 13.904 21.1749 15.0301C21.1221 16.1551 20.9446 16.9209 20.6837 17.5949C20.4193 18.3003 20.0036 18.9392 19.4658 19.4667C18.9375 20.0037 18.2988 20.4193 17.5939 20.6847C16.921 20.9456 16.1541 21.1231 15.0291 21.1759C13.903 21.2256 13.5449 21.2393 10.6748 21.2393C7.80472 21.2393 7.44662 21.2287 6.32055 21.1759C5.19554 21.1231 4.42968 20.9456 3.75573 20.6847C3.05044 20.4201 2.41156 20.0044 1.88388 19.4667C1.34663 18.9388 0.930982 18.3 0.665911 17.5949C0.403937 16.922 0.227526 16.1551 0.174709 15.0301C0.125061 13.904 0.111328 13.5459 0.111328 10.6758C0.111328 7.8057 0.121892 7.44759 0.174709 6.32152C0.227526 5.19546 0.403937 4.43066 0.665911 3.75671C0.930248 3.05126 1.34599 2.41232 1.88388 1.88486C2.41171 1.34742 3.05054 0.931746 3.75573 0.666888C4.42968 0.404914 5.19448 0.228503 6.32055 0.175686C7.44662 0.126037 7.80472 0.112305 10.6748 0.112305Z" fill="#C0C2D7"/>
</svg>
