<svg width="21" height="18" viewBox="0 0 21 18" fill="none" xmlns="http://www.w3.org/2000/svg">
<path fill-rule="evenodd" clip-rule="evenodd" d="M19.1741 0.0563435C19.0667 0.0867753 17.0536 0.899021 14.7005 1.86139C12.3475 2.82371 8.30373 4.47746 5.71434 5.53633C3.12494 6.59525 0.908592 7.51268 0.789115 7.5751C0.551566 7.69919 0.299757 7.95991 0.260687 8.12222C0.195986 8.39109 0.377468 8.73346 0.69851 8.94815C0.915078 9.09297 5.25975 10.6423 5.36962 10.6138C5.40564 10.6045 7.98827 8.90635 11.1088 6.84017C14.2293 4.77399 16.8312 3.06574 16.8909 3.04407C17.0416 2.98928 17.2437 3.01722 17.2933 3.09976C17.4047 3.28536 17.6134 3.08118 10.4719 9.7729C8.26614 11.8397 8.10693 11.9977 8.16835 12.0594C8.20469 12.0958 9.8519 13.4154 11.8289 14.9918C14.5128 17.132 15.4728 17.876 15.6187 17.9288C15.9024 18.0314 16.2394 18.0225 16.4782 17.906C16.663 17.8159 16.9474 17.5401 17.0385 17.3625C17.0827 17.2765 20.2491 0.683147 20.2477 0.545329C20.2459 0.373575 20.1044 0.133136 19.9643 0.0638394C19.7983 -0.0182896 19.4493 -0.0215894 19.1741 0.0563435Z" fill="#C0C2D7"/>
</svg>
