<svg width="24" height="23" viewBox="0 0 24 23" fill="none" xmlns="http://www.w3.org/2000/svg">
<path fill-rule="evenodd" clip-rule="evenodd" d="M10.426 0.0686301C5.10891 0.721674 0.930087 4.96027 0.379824 10.2586C0.298284 11.0438 0.347672 12.5306 0.480289 13.281C0.690198 14.4693 1.03755 15.5148 1.57743 16.5831L1.8487 17.12L1.0404 20.0541C0.595816 21.6679 0.239193 22.9935 0.247834 22.9999C0.256524 23.0062 1.61055 22.6578 3.2568 22.2256C5.65337 21.5963 6.27403 21.4488 6.37068 21.4854C6.43706 21.5105 6.75207 21.6486 7.07069 21.7922C8.10556 22.2586 9.19233 22.5679 10.3359 22.7216C11.1306 22.8284 12.5254 22.8278 13.2984 22.7202C15.8359 22.3672 18.103 21.2521 19.8899 19.4779C20.8243 18.5502 21.4456 17.7016 22.0371 16.5454C22.5698 15.5042 22.9457 14.3691 23.1557 13.1672C23.2785 12.4648 23.2783 10.4006 23.1554 9.66448C22.9478 8.42082 22.6273 7.4272 22.0798 6.32969C20.5215 3.20645 17.644 0.98006 14.2033 0.235658C13.1308 0.00361364 11.5313 -0.0671128 10.426 0.0686301ZM13.4433 2.05454C14.8282 2.30908 15.9765 2.7689 17.1123 3.52362C19.0514 4.81215 20.4788 6.81302 21.0431 9.03347C21.4574 10.6641 21.4248 12.5162 20.9542 14.0842C20.1933 16.6194 18.3798 18.7534 16.0066 19.9061C14.6268 20.5762 13.3501 20.8684 11.8019 20.8684C10.0273 20.8684 8.45417 20.4405 6.84867 19.5208L6.57832 19.366L4.80157 19.83C3.82435 20.0852 3.0174 20.2866 3.00832 20.2776C2.99924 20.2686 3.19974 19.5086 3.45387 18.5887C3.70795 17.6689 3.91772 16.8824 3.91999 16.8411C3.92225 16.7997 3.79731 16.5608 3.64234 16.3101C1.3655 12.6271 1.96225 7.77003 5.06898 4.69828C6.61438 3.17028 8.57086 2.23126 10.7639 1.96495C11.3562 1.89303 12.8331 1.9424 13.4433 2.05454ZM7.29504 6.24121C7.01585 6.37859 6.50571 6.97741 6.29242 7.41813C5.87347 8.28383 5.88202 9.3751 6.31564 10.3856C6.84852 11.6273 8.24277 13.3904 9.61915 14.5629C10.5839 15.3847 11.39 15.8663 12.5743 16.3283C13.7841 16.8002 14.0161 16.8545 14.8192 16.8542C15.4508 16.854 15.551 16.842 15.8447 16.732C16.3275 16.5512 16.6879 16.3235 17.047 15.9722C17.3255 15.6996 17.3816 15.6143 17.4728 15.3244C17.5866 14.963 17.6515 14.3813 17.6007 14.1799C17.5741 14.0746 17.4377 13.9892 16.7519 13.6479C15.4952 13.0225 14.9887 12.8073 14.7734 12.8073C14.597 12.8073 14.567 12.8288 14.3537 13.1072C13.8663 13.7436 13.419 14.2365 13.3025 14.2655C13.1629 14.3003 12.8886 14.2005 12.2552 13.8843C11.2296 13.3724 10.3928 12.6878 9.67346 11.7721C9.28193 11.2738 8.92936 10.7059 8.92936 10.5736C8.92936 10.5169 9.11089 10.2352 9.33277 9.94758C9.7676 9.38383 9.89491 9.17348 9.89491 9.01864C9.89491 8.96432 9.80062 8.69874 9.68538 8.4285C9.57015 8.15821 9.33774 7.60243 9.16891 7.19338C8.95963 6.68639 8.81273 6.39999 8.70739 6.2937L8.5528 6.13776L8.029 6.13781C7.58992 6.13781 7.4712 6.15456 7.29504 6.24121Z" fill="#C0C2D7"/>
</svg>
