<svg width="29" height="20" viewBox="0 0 29 20" fill="none" xmlns="http://www.w3.org/2000/svg">
<path fill-rule="evenodd" clip-rule="evenodd" d="M11.9788 0.00994457C7.11958 0.161068 4.95137 0.311704 3.82601 0.576535C2.95294 0.781967 2.24144 1.18617 1.61114 1.83479C0.944093 2.52115 0.639478 3.11103 0.420941 4.13981C-0.141002 6.78449 -0.140153 13.2101 0.422527 15.8582C0.639875 16.8811 0.954286 17.4896 1.60956 18.1557C2.2659 18.8227 3.0679 19.2518 4.01403 19.4422C5.97593 19.8367 12.714 20.0992 17.4153 19.9641C22.0152 19.832 24.3567 19.654 25.4002 19.357C26.7937 18.9604 27.8999 17.9436 28.3755 16.622C29.0985 14.6126 29.225 7.2854 28.59 4.20154C28.3623 3.09587 27.9345 2.30998 27.2026 1.65237C26.5577 1.07306 25.8502 0.721431 24.9819 0.548811C24.0281 0.359136 21.97 0.188629 19.3973 0.086075C17.9571 0.0286796 13.0091 -0.0221102 11.9788 0.00994457ZM17.5285 2.19828C22.0099 2.32541 24.3105 2.51758 25.0228 2.82432C25.591 3.06901 26.0053 3.4822 26.1995 3.99789C26.3496 4.39641 26.4972 5.23406 26.5992 6.26555C26.725 7.53854 26.7434 11.9848 26.6283 13.3252C26.4944 14.8851 26.327 15.8117 26.1033 16.2309C25.8165 16.7684 25.2403 17.1818 24.5736 17.3282C22.9864 17.6768 16.2053 17.9241 11.6956 17.7976C8.05115 17.6955 5.51654 17.53 4.51713 17.3291C3.47615 17.1198 2.86392 16.5024 2.64074 15.437C2.14149 13.0536 2.14149 6.93686 2.64074 4.55349C2.76182 3.97548 2.96421 3.58205 3.31085 3.25083C3.84957 2.73601 4.34905 2.5962 6.18795 2.44551C9.23275 2.19595 13.8768 2.09475 17.5285 2.19828ZM11.6107 14.3935L19.4688 9.98564C19.4688 9.98564 19.4688 9.98564 11.6107 5.6048V14.3935Z" fill="#C0C2D7"/>
</svg>
