<svg width="16" height="22" viewBox="0 0 16 22" fill="none" xmlns="http://www.w3.org/2000/svg">
<path d="M4.24962 1.08348V9.58348C3.24962 9.58348 1.14962 9.98348 0.749624 11.5835C0.249624 13.5835 1.24962 19.0835 4.74962 20.0835C12.7496 21.5835 14.583 19.4348 14.7496 18.3604V9.08348C14.7496 7.48348 13.083 7.75015 12.2496 8.08348C11.8496 6.88348 10.4163 6.91681 9.74962 7.08348C9.34962 5.88348 7.58296 5.91681 6.74962 6.08348C6.91629 4.58348 7.14962 1.48348 6.74962 1.08348C5.54962 -0.11652 4.58296 0.58348 4.24962 1.08348Z" fill="white"/>
<path d="M4.1263 12.8333C3.8733 12.8333 3.66797 12.628 3.66797 12.375V1.83333C3.66797 0.82225 4.49022 0 5.5013 0C6.51238 0 7.33463 0.82225 7.33463 1.83333V11.4583C7.33463 11.7113 7.1293 11.9167 6.8763 11.9167C6.6233 11.9167 6.41797 11.7113 6.41797 11.4583V1.83333C6.41797 1.32733 6.00638 0.916667 5.5013 0.916667C4.99622 0.916667 4.58463 1.32733 4.58463 1.83333V12.375C4.58463 12.628 4.3793 12.8333 4.1263 12.8333Z" fill="black"/>
<path d="M9.6263 11.9167C9.3733 11.9167 9.16797 11.7113 9.16797 11.4583V7.33333C9.16797 6.82733 8.75638 6.41667 8.2513 6.41667C7.74622 6.41667 7.33463 6.82733 7.33463 7.33333C7.33463 7.58633 7.1293 7.79167 6.8763 7.79167C6.6233 7.79167 6.41797 7.58633 6.41797 7.33333C6.41797 6.32225 7.24022 5.5 8.2513 5.5C9.26238 5.5 10.0846 6.32225 10.0846 7.33333V11.4583C10.0846 11.7113 9.8793 11.9167 9.6263 11.9167Z" fill="black"/>
<path d="M12.3763 11.9165C12.1233 11.9165 11.918 11.7112 11.918 11.4582V8.24984C11.918 7.74384 11.5064 7.33317 11.0013 7.33317C10.4962 7.33317 10.0846 7.74384 10.0846 8.24984C10.0846 8.50284 9.8793 8.70817 9.6263 8.70817C9.3733 8.70817 9.16797 8.50284 9.16797 8.24984C9.16797 7.23875 9.99022 6.4165 11.0013 6.4165C12.0124 6.4165 12.8346 7.23875 12.8346 8.24984V11.4582C12.8346 11.7112 12.6293 11.9165 12.3763 11.9165Z" fill="black"/>
<path d="M11.4583 21.0835H6.15358C3.67583 21.0835 0 17.4132 0 12.3422C0 10.5913 1.44192 9.16683 3.21383 9.16683H4.125C4.378 9.16683 4.58333 9.37216 4.58333 9.62516C4.58333 9.87816 4.378 10.0835 4.125 10.0835H3.21383C1.94792 10.0835 0.916667 11.0964 0.916667 12.3422C0.916667 17.1198 4.356 20.1668 6.15358 20.1668H11.4583C13.2275 20.1668 14.6667 18.7277 14.6667 16.9585V9.16683C14.6667 8.66083 14.2551 8.25016 13.75 8.25016C13.2449 8.25016 12.8333 8.66083 12.8333 9.16683C12.8333 9.41983 12.628 9.62516 12.375 9.62516C12.122 9.62516 11.9167 9.41983 11.9167 9.16683C11.9167 8.15575 12.7389 7.3335 13.75 7.3335C14.7611 7.3335 15.5833 8.15575 15.5833 9.16683V16.9585C15.5833 19.2327 13.7326 21.0835 11.4583 21.0835Z" fill="black"/>
</svg>
