<svg width="36" height="38" viewBox="0 0 36 38" fill="none" xmlns="http://www.w3.org/2000/svg">
<path fill-rule="evenodd" clip-rule="evenodd" d="M27.2997 0.0766653C26.1854 0.227715 24.7456 0.835326 23.7709 1.56586C22.4568 2.55083 21.3957 4.17675 21.0289 5.76748L20.9048 6.30561H11.035H1.1652C1.1652 6.30561 0.577677 6.16074 0.157446 6.82877C-0.262785 7.4968 0.288569 8.09579 0.312101 8.13216C0.335632 8.1686 3.41729 11.9894 7.16021 16.623L13.9656 25.0476L13.9666 29.6353C13.9673 32.9055 13.9418 34.3224 13.8778 34.5692C13.7638 35.0094 13.2257 35.5523 12.7745 35.6825C12.5504 35.7472 11.6116 35.7732 9.50834 35.7732H6.55663C6.55663 35.7732 5.50539 35.7732 5.50539 36.8866C5.50539 38 6.55663 38 6.55663 38H15.0754H23.5942C23.5942 38 24.6822 38 24.6822 36.8866C24.6822 35.7732 23.5942 35.7732 23.5942 35.7732L20.6718 35.7728C18.8474 35.7726 17.6398 35.7428 17.4575 35.6937C17.0846 35.593 16.5811 35.153 16.4022 34.7712C16.2723 34.494 16.2629 34.1601 16.2613 29.7526L16.2596 25.0309L20.6598 19.5836C24.2138 15.184 25.0917 14.139 25.2248 14.1498C25.3154 14.1571 25.6825 14.2642 26.0403 14.3876C26.9464 14.7003 27.655 14.7918 28.8277 14.7475C29.5984 14.7184 29.975 14.6656 30.5085 14.5121C33.1407 13.7545 34.9756 11.9693 35.7936 9.36995C35.9826 8.76946 35.9989 8.61537 36 7.419C36.0013 5.90361 35.8923 5.3916 35.3238 4.24407C34.9004 3.38936 34.6377 3.01563 33.9947 2.35339C32.2471 0.553566 29.8343 -0.266926 27.2997 0.0766653ZM30.0501 2.47542C31.8481 3.0281 33.2393 4.50341 33.6488 6.29173C33.8327 7.09486 33.768 8.23288 33.4939 9.01411C32.7723 11.0719 30.9213 12.4275 28.7021 12.5237C27.8883 12.559 26.7907 12.4044 26.686 12.2397C26.662 12.202 27.383 11.2548 28.2882 10.1349L29.934 8.09876C29.934 8.09876 30.3557 7.31123 30.0501 6.75454C29.7445 6.19785 29.0711 6.30561 29.0711 6.30561H26.1738H23.2764L23.329 6.06438C23.4839 5.35374 24.1028 4.33885 24.7653 3.70898C25.2176 3.27891 26.0004 2.78286 26.5739 2.56278C27.5775 2.1777 28.9679 2.14274 30.0501 2.47542ZM26.4064 8.84785C26.2621 9.02138 25.5327 9.92323 24.7855 10.8519C24.0383 11.7807 23.402 12.5406 23.3713 12.5406C23.3408 12.5406 23.1291 12.443 22.9011 12.3237C21.9462 11.8242 20.6163 11.7013 19.5449 12.0134C18.6869 12.2633 18.0529 12.6644 17.2411 13.4705C16.2985 14.4066 15.827 14.6481 15.0221 14.607C14.2263 14.5664 13.8954 14.3826 12.9188 13.4383C12.2279 12.7703 11.9847 12.587 11.4442 12.3268C10.0713 11.6661 8.64973 11.6661 7.30254 12.3268C7.05699 12.4472 6.8271 12.5283 6.79157 12.5069C6.74405 12.4784 4.36505 9.55626 3.63137 8.62517C3.57292 8.55102 5.88125 8.53239 15.1135 8.53239H26.6687L26.4064 8.84785ZM10.344 14.2908C10.5983 14.4074 11.0193 14.7453 11.5681 15.2735C12.4835 16.1544 13.0773 16.5068 14.0431 16.7423C14.7788 16.9218 15.9755 16.8553 16.6692 16.5964C17.4317 16.3118 18.1563 15.8116 18.7807 15.1387C19.4821 14.3827 20.0589 14.0791 20.7845 14.084C21.2915 14.0873 21.8752 14.2456 21.8752 14.3798C21.8752 14.4972 15.1636 22.7875 15.0883 22.7632C15.0532 22.7518 13.5003 20.8562 11.6375 18.5508L8.25054 14.3591L8.44521 14.2588C8.94159 14.0029 9.74564 14.0164 10.344 14.2908Z" fill="#F4683F"/>
</svg>
