<svg width="22" height="22" viewBox="0 0 22 22" fill="none" xmlns="http://www.w3.org/2000/svg">
<path d="M11.3799 7.83078C10.5394 7.83078 9.73335 8.16466 9.13904 8.75898C8.54473 9.35329 8.21085 10.1593 8.21085 10.9998C8.21085 11.8403 8.54473 12.6464 9.13904 13.2407C9.73335 13.835 10.5394 14.1689 11.3799 14.1689C12.2204 14.1689 13.0264 13.835 13.6208 13.2407C14.2151 12.6464 14.5489 11.8403 14.5489 10.9998C14.5489 10.1593 14.2151 9.35329 13.6208 8.75898C13.0264 8.16466 12.2204 7.83078 11.3799 7.83078ZM11.3799 5.71809C12.7807 5.71809 14.1241 6.27455 15.1147 7.26507C16.1052 8.25559 16.6616 9.59903 16.6616 10.9998C16.6616 12.4006 16.1052 13.7441 15.1147 14.7346C14.1241 15.7251 12.7807 16.2816 11.3799 16.2816C9.97909 16.2816 8.63566 15.7251 7.64514 14.7346C6.65462 13.7441 6.09815 12.4006 6.09815 10.9998C6.09815 9.59903 6.65462 8.25559 7.64514 7.26507C8.63566 6.27455 9.97909 5.71809 11.3799 5.71809ZM18.2462 5.454C18.2462 5.8042 18.107 6.14006 17.8594 6.38769C17.6118 6.63532 17.2759 6.77444 16.9257 6.77444C16.5755 6.77444 16.2397 6.63532 15.992 6.38769C15.7444 6.14006 15.6053 5.8042 15.6053 5.454C15.6053 5.1038 15.7444 4.76794 15.992 4.52031C16.2397 4.27268 16.5755 4.13356 16.9257 4.13356C17.2759 4.13356 17.6118 4.27268 17.8594 4.52031C18.107 4.76794 18.2462 5.1038 18.2462 5.454ZM11.3799 2.54904C8.76649 2.54904 8.33972 2.55643 7.12387 2.61031C6.29569 2.64939 5.74005 2.76031 5.22455 2.96101C4.7661 3.13848 4.43546 3.35081 4.08369 3.70363C3.75306 4.02307 3.49885 4.41305 3.34002 4.84449C3.13932 5.3621 3.0284 5.91668 2.99037 6.7438C2.93544 7.91001 2.9291 8.31776 2.9291 10.9998C2.9291 13.6132 2.9365 14.04 2.99037 15.2559C3.02946 16.083 3.14037 16.6397 3.34002 17.1541C3.5196 17.6136 3.73087 17.9443 4.08158 18.295C4.43757 18.6499 4.76821 18.8622 5.22244 19.0376C5.74427 19.2394 6.29991 19.3513 7.12387 19.3894C8.29008 19.4443 8.69783 19.4506 11.3799 19.4506C13.9933 19.4506 14.4201 19.4432 15.6359 19.3894C16.462 19.3503 17.0187 19.2394 17.5342 19.0397C17.9916 18.8612 18.3243 18.6489 18.675 18.2981C19.031 17.9422 19.2434 17.6115 19.4187 17.1573C19.6194 16.6365 19.7314 16.0798 19.7694 15.2559C19.8244 14.0897 19.8307 13.6819 19.8307 10.9998C19.8307 8.38642 19.8233 7.95966 19.7694 6.7438C19.7303 5.91774 19.6194 5.35998 19.4187 4.84449C19.2595 4.4135 19.0058 4.02366 18.6761 3.70363C18.3568 3.37283 17.9668 3.11859 17.5352 2.95996C17.0176 2.75925 16.462 2.64834 15.6359 2.61031C14.4697 2.55538 14.062 2.54904 11.3799 2.54904ZM11.3799 0.43634C14.25 0.43634 14.6081 0.446904 15.7342 0.499721C16.8592 0.552539 17.625 0.728949 18.299 0.990924C18.9962 1.25924 19.5835 1.62262 20.1708 2.20889C20.708 2.73696 21.1236 3.37573 21.3888 4.08074C21.6497 4.75364 21.8272 5.52055 21.88 6.64556C21.9297 7.77163 21.9434 8.12973 21.9434 10.9998C21.9434 13.8699 21.9328 14.228 21.88 15.3541C21.8272 16.4791 21.6497 17.245 21.3888 17.9189C21.1244 18.6243 20.7086 19.2632 20.1708 19.7908C19.6426 20.3277 19.0039 20.7433 18.299 21.0087C17.6261 21.2697 16.8592 21.4471 15.7342 21.4999C14.6081 21.5496 14.25 21.5633 11.3799 21.5633C8.5098 21.5633 8.15169 21.5528 7.02563 21.4999C5.90061 21.4471 5.13476 21.2697 4.46081 21.0087C3.75551 20.7441 3.11664 20.3284 2.58896 19.7908C2.05171 19.2628 1.63606 18.624 1.37099 17.9189C1.10902 17.246 0.932605 16.4791 0.879787 15.3541C0.830139 14.228 0.816406 13.8699 0.816406 10.9998C0.816406 8.12973 0.82697 7.77163 0.879787 6.64556C0.932605 5.51949 1.10902 4.7547 1.37099 4.08074C1.63533 3.37529 2.05107 2.73635 2.58896 2.20889C3.11679 1.67146 3.75562 1.25578 4.46081 0.990924C5.13476 0.728949 5.89956 0.552539 7.02563 0.499721C8.15169 0.450073 8.5098 0.43634 11.3799 0.43634Z" fill="#C0C2D7"/>
</svg>
