<svg width="45" height="31" viewBox="0 0 45 31" fill="none" xmlns="http://www.w3.org/2000/svg">
<path fill-rule="evenodd" clip-rule="evenodd" d="M21.4464 0.132664C20.0906 0.489034 18.9316 1.71218 18.6267 3.10842C18.5073 3.65514 18.5655 4.554 18.7544 5.07959C18.8303 5.29115 18.8793 5.47727 18.8632 5.49314C18.8471 5.50901 18.5229 5.59534 18.1428 5.68512C15.5888 6.2879 12.7476 7.69604 10.7352 9.35637C8.65743 11.0706 7.08955 13.0511 5.90543 15.4568C4.97135 17.3548 4.33736 19.5144 4.181 21.3313L4.12463 21.9872H0L0.0474984 23.2594C0.0808614 24.1519 0.150309 24.7374 0.280337 25.2215C1.02486 27.9934 3.23498 30.1156 6.14081 30.8487C6.7014 30.9902 7.76392 31 22.5 31H38.2596L39.0059 30.8049C41.3561 30.1907 43.2361 28.646 44.2455 26.4997C44.7297 25.4703 44.8989 24.6947 44.9525 23.2594L45 21.9872H40.8754L40.819 21.3313C40.5431 18.126 38.912 14.3454 36.6798 11.7379C34.1381 8.76869 30.8394 6.69921 27.1576 5.76369C26.6046 5.6232 26.1421 5.4984 26.1298 5.48632C26.1175 5.47416 26.1697 5.29115 26.2456 5.07959C26.4345 4.554 26.4927 3.65514 26.3733 3.10842C25.8949 0.917075 23.6412 -0.444152 21.4464 0.132664ZM23.1169 2.75542C23.5085 2.95171 23.817 3.44806 23.817 3.88188C23.817 4.51933 23.1488 5.1692 22.4935 5.1692C22.0954 5.1692 21.5845 4.85552 21.369 4.47888C21.136 4.07154 21.1331 3.70603 21.3596 3.26988C21.6841 2.64511 22.4496 2.42104 23.1169 2.75542ZM24.1496 7.84758C28.8029 8.34444 33.0142 10.8398 35.6116 14.6395C36.2515 15.5756 37.1579 17.3851 37.4992 18.408C37.808 19.3336 38.0958 20.6015 38.1794 21.4051L38.24 21.9872C27.7467 21.9847 17.2534 21.9848 6.76005 21.9872L6.82063 21.4051C6.98129 19.8607 7.5043 18.1414 8.30949 16.5106C9.47869 14.1426 11.0367 12.32 13.289 10.6854C14.2413 9.99425 16.3687 8.9229 17.5395 8.5448C19.6368 7.86742 22.0003 7.61816 24.1496 7.84758ZM42.123 24.7687C42.0924 24.8755 41.9254 25.2538 41.7519 25.6096C41.1107 26.9237 39.6697 28.0171 38.1718 28.326C37.2484 28.5164 7.75163 28.5164 6.82818 28.326C5.33027 28.0171 3.88933 26.9237 3.24815 25.6096C3.07458 25.2538 2.90758 24.8755 2.87703 24.7687L2.82154 24.5746H42.1785L42.123 24.7687Z" fill="#F4683F"/>
</svg>
