<svg width="34" height="38" viewBox="0 0 34 38" fill="none" xmlns="http://www.w3.org/2000/svg">
<path fill-rule="evenodd" clip-rule="evenodd" d="M6.74161 0.0825355C4.15075 0.525479 1.99276 2.07942 0.853494 4.32275C-0.89053 7.75671 0.0959637 11.6971 3.2851 14.0357C4.3764 14.836 6.01639 15.4269 7.46598 15.5421L8.13791 15.5955L16.9129 23.0069L25.6879 30.4183L26.7706 29.3856L27.8534 28.3529L29.5523 30.0081C30.7203 31.1459 31.3046 31.7708 31.4219 32.0076C31.9148 33.0018 31.7236 34.1461 30.9277 34.9659C30.2872 35.6256 29.3478 35.9097 28.4325 35.7206C28.1628 35.6649 26.9515 35.0868 24.8513 34.0115C20.9 31.9885 20.4183 31.7563 19.3648 31.3668C17.9657 30.8497 16.8917 30.5729 15.277 30.3135C13.9771 30.1047 10.705 30.1217 9.37512 30.3441C7.56292 30.6472 6.02449 31.0937 4.47103 31.7672C3.52911 32.1756 0.66309 33.6472 0.66309 33.7224C0.66309 33.8049 1.66686 35.6379 1.71205 35.6379C1.73025 35.6379 2.1928 35.4051 2.7398 35.1207C5.38302 33.7462 6.51473 33.2805 8.24819 32.8542C11.3464 32.0923 14.7505 32.2151 17.8219 33.1995C19.0337 33.588 19.8203 33.9547 23.6036 35.8945C25.3413 36.7856 26.9062 37.5737 27.0809 37.6458C27.719 37.9094 28.5593 38.0392 29.3067 37.9896C30.6282 37.902 31.6002 37.4823 32.5201 36.6019C33.5098 35.6549 34.0074 34.4689 33.9999 33.0747C33.9951 32.17 33.759 31.3793 33.2769 30.6544C33.0827 30.3622 32.2831 29.5216 31.2149 28.4864L29.4699 26.7957L30.5353 25.7673L31.6006 24.739L23.8823 16.2491L16.1638 7.75909V7.36786C16.1638 7.1527 16.1114 6.71013 16.0472 6.38442C15.4521 3.36204 13.152 0.985585 10.0874 0.226741C9.15279 -0.00468626 7.63472 -0.0701397 6.74161 0.0825355ZM9.57023 2.38901C10.1189 2.53158 11.0366 2.92675 11.165 3.07579C11.2394 3.16212 10.5371 3.87371 7.29 7.0024C5.10887 9.10397 3.29906 10.8235 3.26829 10.8235C3.16118 10.8235 2.59621 9.59394 2.46611 9.0776C2.27918 8.33554 2.29599 7.09289 2.50313 6.34452C2.99923 4.55239 4.49038 3.05053 6.35155 2.46828C6.57481 2.39844 6.92184 2.31249 7.12273 2.2772C7.64721 2.18522 9.02863 2.2483 9.57023 2.38901ZM13.2986 5.38635C13.594 6.00381 13.8503 6.93873 13.8503 7.39891V7.73955L10.9395 10.5445C8.65028 12.7504 7.98738 13.3493 7.83546 13.3486C7.33504 13.346 6.16585 13.0419 5.54667 12.7532L4.88191 12.4432L8.8804 8.5906C11.6737 5.8992 12.9056 4.75938 12.9675 4.80893C13.0163 4.84793 13.1652 5.10782 13.2986 5.38635ZM16.5015 11.5107L18.0066 13.1638L15.871 15.2256C14.6964 16.3596 13.7105 17.279 13.68 17.2687C13.6192 17.2481 11.9742 15.8815 10.8944 14.9544L10.2109 14.3677L12.5507 12.1127C13.8376 10.8724 14.9143 9.85769 14.9434 9.85769C14.9726 9.85769 15.6737 10.6015 16.5015 11.5107ZM24.0369 19.801L28.4502 24.6552L27.0305 26.0172L25.6108 27.3792L20.5384 23.097L15.4661 18.8148L17.4919 16.8621C18.606 15.7882 19.5415 14.9179 19.5706 14.9281C19.5997 14.9385 21.6096 17.1313 24.0369 19.801Z" fill="#F4683F"/>
</svg>
