<svg width="14" height="18" viewBox="0 0 14 18" fill="none" xmlns="http://www.w3.org/2000/svg">
<path d="M6.99992 0C3.57994 0 0.80835 2.77236 0.80835 6.19234C0.80835 8.79932 4.40723 14.8066 6.11726 17.514C6.30889 17.8167 6.64259 18 7.00054 18C7.35864 17.9992 7.69164 17.8161 7.88269 17.5134C9.59326 14.8054 13.1916 8.79929 13.1916 6.1923C13.1916 2.77236 10.42 0 6.99992 0ZM6.99992 9.97275C5.0658 9.97275 3.49784 8.40501 3.49784 6.47063C3.49784 4.53647 5.06576 2.96855 6.99992 2.96855C8.93408 2.96855 10.502 4.53644 10.502 6.47063C10.502 8.40501 8.93411 9.97275 6.99992 9.97275Z" fill="#F4683F"/>
</svg>
