<svg width="19" height="19" viewBox="0 0 19 19" fill="none" xmlns="http://www.w3.org/2000/svg">
<path fill-rule="evenodd" clip-rule="evenodd" d="M8.95548 0.0507127C8.81907 0.077987 8.63307 0.128225 8.54213 0.162337C8.4512 0.196448 6.73996 1.07145 4.73938 2.1068C1.14731 3.96572 1.09784 3.99292 0.770387 4.28674C0.399908 4.61915 0.18096 4.96239 0.07097 5.38317C-0.0226934 5.74156 -0.0240987 13.269 0.0694407 13.6258C0.18034 14.0487 0.402801 14.3987 0.770552 14.7288C1.0978 15.0225 1.14785 15.05 4.74984 16.9156C7.0069 18.0845 8.51192 18.8417 8.69726 18.9015C8.95498 18.9846 9.06609 18.9984 9.49282 18.9999C10.1345 19.0023 10.3873 18.9298 11.1999 18.5105C11.5341 18.338 13.184 17.4837 14.8663 16.612C17.8724 15.0542 17.9307 15.0218 18.2557 14.7289C18.4891 14.5185 18.6267 14.3565 18.7236 14.1781C19.0202 13.6321 18.9997 13.9774 18.9997 9.52633C18.9997 5.1186 19.0146 5.38648 18.7405 4.87272C18.5854 4.58192 18.212 4.1854 17.9303 4.01225C17.6399 3.8337 10.7879 0.28678 10.5468 0.190205C10.0791 0.00281551 9.46434 -0.0510642 8.95548 0.0507127ZM9.8936 1.16041C10.1352 1.22581 12.7098 2.56195 12.6669 2.59971C12.6156 2.64474 9.54941 4.23126 9.51361 4.23126C9.47918 4.23126 6.41404 2.64482 6.36072 2.59941C6.32141 2.56593 8.93956 1.20437 9.14148 1.15328C9.35332 1.09966 9.68048 1.10278 9.8936 1.16041ZM6.7431 4.09559C7.54962 4.51474 8.21402 4.87142 8.21952 4.88818C8.22498 4.90498 7.52213 5.28459 6.65762 5.73183C5.29859 6.43483 5.07332 6.53987 4.99409 6.50743C4.87827 6.45998 1.93829 4.93693 1.90113 4.90509C1.886 4.89212 2.59095 4.51036 3.46778 4.05673C4.99644 3.26581 5.06638 3.234 5.16934 3.28272C5.22841 3.31062 5.93659 3.67645 6.7431 4.09559ZM15.5804 4.06405C16.4464 4.51366 17.1421 4.89231 17.1266 4.90546C17.0859 4.93994 14.1709 6.45088 14.0479 6.50127C13.9537 6.53984 13.811 6.47429 12.3713 5.73105C11.5058 5.28425 10.802 4.90539 10.8072 4.88911C10.8189 4.85314 13.9468 3.2262 13.9814 3.23813C13.9949 3.24277 14.7145 3.61443 15.5804 4.06405ZM11.1205 6.36716C11.9871 6.81637 12.6954 7.1926 12.6944 7.20323C12.6916 7.23258 9.57049 8.8389 9.51622 8.8389C9.4643 8.8389 6.46472 7.29508 6.38473 7.22723C6.34745 7.19557 6.48869 7.10576 6.96341 6.85921C7.30884 6.67981 8.01926 6.30923 8.54213 6.03563C9.06501 5.76204 9.50452 5.54094 9.51882 5.54429C9.53308 5.54763 10.2539 5.91792 11.1205 6.36716ZM2.97234 6.75669L4.42938 7.51268V9.17645V10.8402L3.71636 10.4699C3.32422 10.2663 2.6084 9.89539 2.12565 9.64576L1.248 9.19191L1.2473 7.52539L1.24664 5.85887L1.38098 5.92981C1.45488 5.96879 2.171 6.34089 2.97234 6.75669ZM17.7802 7.52907L17.78 9.19191L17.0878 9.55011C16.7071 9.74717 15.9911 10.1183 15.4966 10.375L14.5976 10.8417V9.17816V7.51469L16.1786 6.69211C17.0482 6.23971 17.7643 5.86879 17.77 5.8679C17.7757 5.86697 17.7803 6.61449 17.7802 7.52907ZM7.31426 9.00612L8.89174 9.8236L8.89261 11.4888L8.89348 13.154L8.73847 13.0754C8.65324 13.0322 7.93245 12.6589 7.13677 12.2458L5.69007 11.4947L5.67932 9.82917C5.67337 8.91311 5.68391 8.16923 5.70268 8.17611C5.72144 8.18298 6.44665 8.5565 7.31426 9.00612ZM13.3064 11.4988C13.2631 11.535 10.5252 12.9652 10.2265 13.1076L10.1335 13.1519L10.1347 11.4877L10.136 9.8236L11.7364 8.99668L13.3369 8.16979L13.3477 9.81245C13.3561 11.0962 13.3471 11.4647 13.3064 11.4988ZM3.73686 11.769L4.429 12.1274L4.42921 13.7933L4.42938 15.4592L4.29504 15.3864C4.22118 15.3465 3.64919 15.0499 3.02401 14.7274C2.39883 14.4049 1.81168 14.0865 1.71926 14.0199C1.62675 13.9532 1.48737 13.7929 1.40925 13.6633L1.26731 13.428L1.2552 11.9515L1.24309 10.475L2.14388 10.9428C2.63931 11.2001 3.35617 11.5719 3.73686 11.769ZM17.7719 12.2761L17.7597 13.428L17.6177 13.6633C17.5396 13.7928 17.4001 13.9535 17.3077 14.0205C17.1733 14.118 16.4047 14.5257 14.6286 15.4415C14.6115 15.4503 14.5979 14.7082 14.5982 13.7925L14.5988 12.1274L16.1793 11.3085L17.7597 10.4896L17.7719 10.8069C17.7787 10.9814 17.7787 11.6425 17.7719 12.2761ZM7.32277 13.6275L8.87281 14.436L8.88355 16.0997C8.88971 17.0518 8.87872 17.758 8.8578 17.7509C8.83772 17.744 8.11238 17.3705 7.24593 16.9209L5.6706 16.1034L5.67002 14.4591C5.66953 13.1671 5.68048 12.8153 5.72107 12.817C5.74951 12.8181 6.47025 13.1829 7.32277 13.6275ZM13.3576 14.4598V16.1048L11.7819 16.9216C10.9152 17.3708 10.1896 17.744 10.1694 17.7509C10.1482 17.7581 10.1372 17.0591 10.1434 16.0989L10.1542 14.4345L11.7042 13.6275C12.5567 13.1837 13.2775 12.8193 13.3059 12.8177C13.3465 12.8155 13.3576 13.1671 13.3576 14.4598Z" fill="#F4683F"/>
</svg>
