<svg width="39" height="41" viewBox="0 0 39 41" fill="none" xmlns="http://www.w3.org/2000/svg">
<path fill-rule="evenodd" clip-rule="evenodd" d="M18.387 0.0265636C16.757 0.270607 15.5508 0.630544 14.3863 1.22059C12.7383 2.05556 11.1678 3.42098 10.0674 4.9755L9.76413 5.40408L8.78038 5.44949C6.409 5.55906 4.46636 6.41894 2.78266 8.10449C0.259936 10.6299 -0.643541 14.4706 0.46944 17.9377C0.933112 19.3821 1.59953 20.4789 2.72464 21.6493C3.81644 22.785 4.79597 23.4244 6.19067 23.9116C6.57361 24.0454 7.02254 24.1788 7.1883 24.2082C7.35407 24.2375 7.55014 24.2788 7.62404 24.3C7.75051 24.3362 7.75849 24.7174 7.76087 30.8405C7.76225 34.4168 7.79341 37.5857 7.83009 37.8827C8.00737 39.3177 9.04836 40.5373 10.3743 40.8635C11.1139 41.0455 27.8856 41.0455 28.6253 40.8635C29.9512 40.5373 30.9922 39.3177 31.1695 37.8827C31.2061 37.5857 31.2373 34.4168 31.2387 30.8405C31.2411 24.7174 31.249 24.3362 31.3755 24.3C31.4493 24.2788 31.6455 24.2375 31.8113 24.2082C32.2661 24.1277 33.4463 23.6994 33.9641 23.4269C35.2266 22.7624 36.666 21.4419 37.4346 20.2429C39.9139 16.3749 39.4044 11.2954 36.2169 8.10449C34.5332 6.41894 32.5906 5.55906 30.2192 5.44949L29.2354 5.40408L28.9321 4.9755C27.1973 2.52466 24.6223 0.820444 21.7331 0.211018C21.0239 0.061404 18.9265 -0.0542501 18.387 0.0265636ZM20.7711 2.78841C23.3094 3.15691 25.688 4.73627 27.1213 7.00498C27.8855 8.21454 27.8318 8.18883 29.5913 8.18923C31.2962 8.18971 31.6242 8.25907 32.8144 8.87138C34.8019 9.89369 36.189 11.9913 36.3679 14.2447C36.6318 17.5684 34.7936 20.4281 31.74 21.4443C30.6612 21.8033 28.7106 21.7417 27.7254 21.3174L27.471 21.2078L28.1282 20.4375C29.3109 19.0511 30.0516 17.7303 30.5924 16.0436C30.8254 15.3168 30.851 15.1631 30.7875 14.8682C30.6894 14.4127 30.4938 14.1517 30.0886 13.9356C29.6663 13.7104 29.3878 13.7082 28.9557 13.9265C28.5613 14.1258 28.3815 14.3975 28.168 15.1169C27.6253 16.9467 26.3301 18.7882 24.7678 19.9514C23.225 21.1 21.4595 21.679 19.4998 21.679C17.54 21.679 15.7746 21.1 14.2318 19.9514C12.6695 18.7882 11.3742 16.9467 10.8315 15.1169C10.618 14.3975 10.4383 14.1258 10.0439 13.9265C9.6118 13.7082 9.33323 13.7104 8.911 13.9356C8.50572 14.1517 8.31011 14.4127 8.21204 14.8682C8.14857 15.1631 8.17413 15.3168 8.40711 16.0436C8.94791 17.7303 9.68862 19.0511 10.8714 20.4375L11.5286 21.2078L11.2742 21.3174C10.289 21.7417 8.33835 21.8033 7.25952 21.4443C4.67671 20.5847 2.85357 18.28 2.63393 15.5966C2.51629 14.1587 2.73761 12.9827 3.35837 11.7478C3.99295 10.4857 4.95996 9.50155 6.18514 8.87138C7.37532 8.25907 7.70339 8.18971 9.40828 8.18923C11.1677 8.18883 11.1141 8.21454 11.8783 7.00498C12.4801 6.05243 13.4512 5.0085 14.3026 4.39883C15.3976 3.61472 16.9292 2.97598 18.1568 2.79137C18.8255 2.69077 20.0886 2.68941 20.7711 2.78841ZM14.3561 23.1652C17.4753 24.8148 21.5232 24.8154 24.6408 23.1666L25.0147 22.9688L25.7682 23.3627C26.5465 23.7694 27.4222 24.0893 28.1924 24.2483L28.6354 24.3397L28.6145 31.0681L28.5936 37.7964L28.343 38.0301L28.0924 38.2638H19.4998H10.9072L10.6566 38.0301L10.4059 37.7964L10.385 31.0681L10.3642 24.3397L10.8071 24.2478C11.5942 24.0845 12.4852 23.7573 13.219 23.3621C13.6134 23.1498 13.9458 22.9738 13.9577 22.9711C13.9697 22.9683 14.149 23.0557 14.3561 23.1652Z" fill="#F4683F"/>
</svg>
