<svg width="38" height="37" viewBox="0 0 38 37" fill="none" xmlns="http://www.w3.org/2000/svg">
<path fill-rule="evenodd" clip-rule="evenodd" d="M34.3975 0.147989C34.009 0.391363 33.9058 0.623753 33.741 1.62614C33.4143 3.61333 32.7297 5.40524 31.9002 6.44473L31.7156 6.6759L31.5264 6.20062C30.7706 4.30212 29.2894 3.24359 27.389 3.24359C26.1571 3.24359 25.3248 3.59079 24.466 4.46307C22.77 6.18549 22.9396 9.00638 24.8139 10.2509C25.5877 10.7648 26.2315 10.9335 27.4036 10.9299C28.064 10.9278 28.6001 10.8781 29.0138 10.7805C29.3549 10.7 29.6548 10.6556 29.6803 10.6817C29.7344 10.7373 29.5383 11.4928 29.2991 12.1495C29.07 12.7786 28.4195 13.7556 27.9877 14.119C27.5657 14.4743 27.4036 14.7644 27.4036 15.1641C27.4036 15.9509 28.1437 16.5085 28.8639 16.2643C29.2159 16.145 30.1208 15.2475 30.5475 14.5946C31.3953 13.2975 31.9003 11.7881 32.045 10.1193L32.1015 9.46832L32.8418 8.74804C34.0023 7.61896 34.7802 6.31266 35.3697 4.50269C35.7217 3.42171 35.9504 2.32428 36.0049 1.45347C36.0421 0.858584 36.0265 0.726766 35.8934 0.51122C35.591 0.0215413 34.8765 -0.152019 34.3975 0.147989ZM3.84139 0.974616C2.51996 1.24989 1.41603 2.33356 1.0711 3.69397C0.745492 4.9783 1.08575 6.24293 2.01322 7.19584C4.07939 9.31852 7.5656 8.17333 8.08249 5.20214C8.5109 2.73951 6.23919 0.475092 3.84139 0.974616ZM5.23283 3.42862C5.82939 3.84157 6.03381 4.59277 5.72912 5.25243C5.47979 5.79223 4.7211 6.1199 4.16058 5.92982C3.28071 5.63153 2.93237 4.64533 3.41939 3.8314C3.75949 3.26296 4.69385 3.05547 5.23283 3.42862ZM28.4216 5.8081C29.0193 6.14228 29.4113 6.73578 29.6471 7.66331L29.7656 8.12955L29.5108 8.23899C28.6547 8.60646 27.3839 8.76212 26.7031 8.58286C25.8502 8.35844 25.5519 8.01832 25.5523 7.27135C25.5532 5.87824 27.119 5.07968 28.4216 5.8081ZM14.6074 6.98754C14.2161 7.18649 10.8963 10.5942 10.7753 10.921C10.6595 11.2339 10.6708 11.592 10.8046 11.8524C10.8667 11.9733 11.7505 12.9234 12.7687 13.964L14.62 15.8558H15.0875H15.5549L17.4062 13.964C18.4244 12.9235 19.3082 11.9733 19.3703 11.8524C19.5042 11.592 19.5154 11.2339 19.3996 10.921C19.276 10.587 15.9531 7.18071 15.5603 6.98534C15.153 6.78282 15.0093 6.78314 14.6074 6.98754ZM15.9772 10.5044L16.7905 11.337L15.9402 12.2131L15.0901 13.0893L14.2374 12.2159L13.3846 11.3426L14.195 10.5072C14.6408 10.0477 15.0411 9.67174 15.0847 9.67174C15.1282 9.67174 15.5299 10.0464 15.9772 10.5044ZM20.9894 17.0642C20.4315 17.3716 20.2178 18.0015 20.489 18.5393C21.0321 19.6169 22.5854 19.2762 22.5854 18.0795C22.5854 17.6547 22.429 17.3837 22.0185 17.0967C21.7004 16.8742 21.3541 16.8633 20.9894 17.0642ZM2.53533 17.4586C1.49246 18.0134 1.8385 19.5988 3.00247 19.5988C3.87149 19.5988 4.37173 18.7681 3.97904 17.9772C3.69692 17.4086 3.05949 17.1797 2.53533 17.4586ZM9.76508 19.1487C9.42743 19.2996 8.58036 20.1791 8.15947 20.8158C7.39825 21.9674 6.89895 23.4316 6.71639 25.0471L6.61944 25.9049L5.81513 26.7185C5.3727 27.1661 4.8681 27.7519 4.6937 28.0204C3.63063 29.6575 2.76082 32.3498 2.73999 34.0679L2.73175 34.7451L3.02488 35.0215C3.18614 35.1735 3.4091 35.3214 3.52046 35.3501C4.00748 35.4756 4.63952 35.1454 4.81464 34.674C4.86066 34.5501 4.958 34.0645 5.03094 33.5951C5.29255 31.9113 5.77157 30.5669 6.5187 29.4194L6.99099 28.694L7.34724 29.4557C7.63665 30.0745 7.8166 30.3331 8.30655 30.8342C9.18761 31.7353 10.1008 32.1296 11.3065 32.1296C12.9274 32.1296 14.3364 31.2856 15.0062 29.9133C16.0581 27.7584 15.1477 25.3796 12.9886 24.6409C12.0667 24.3256 10.558 24.3483 9.20179 24.6979C9.02619 24.7432 9.02017 24.7305 9.07324 24.4301C9.17517 23.8532 9.59258 22.7818 9.91509 22.2693C10.0902 21.9909 10.4387 21.56 10.6895 21.3116C11.2418 20.7647 11.3253 20.6108 11.3253 20.1392C11.3253 19.711 11.0562 19.3194 10.6385 19.1402C10.3159 19.0017 10.0893 19.0039 9.76508 19.1487ZM33.0666 19.8342C32.9359 19.9185 32.0181 20.8264 31.0271 21.8518L29.2252 23.716V24.1024C29.2252 24.3151 29.2763 24.5878 29.3387 24.7087C29.512 25.0439 32.9563 28.5297 33.2104 28.6268C33.5743 28.7659 33.8463 28.726 34.2193 28.4784C34.413 28.3498 35.3071 27.4802 36.2063 26.5459C37.5436 25.1563 37.8593 24.7846 37.9407 24.5039C38.1236 23.8738 37.9869 23.6716 36.0171 21.6562C35.0478 20.6645 34.1543 19.8142 34.0317 19.7666C33.6974 19.6369 33.3325 19.6625 33.0666 19.8342ZM24.0219 20.8157C23.6561 21.0448 23.4968 21.3386 23.5031 21.772C23.5093 22.1917 23.6713 22.4687 24.0762 22.7518C24.4067 22.9829 24.7438 22.9824 25.1393 22.7505C25.8177 22.3525 25.9099 21.544 25.3433 20.9619C25.0811 20.6925 25.0007 20.6565 24.6606 20.6569C24.4182 20.657 24.181 20.716 24.0219 20.8157ZM18.8454 22.0249C18.4808 22.3996 18.4008 22.6773 18.5301 23.1204C18.7973 24.0367 19.8125 24.2595 20.4297 23.5373C20.6227 23.3115 20.6713 23.1809 20.6713 22.8874C20.6713 22.1616 20.238 21.7152 19.5333 21.7147C19.192 21.7143 19.1131 21.75 18.8454 22.0249ZM0.525228 22.2756C0.0100897 22.6245 -0.151406 23.2903 0.15416 23.8052C0.597382 24.552 1.562 24.5689 2.03714 23.8382C2.13773 23.6836 2.21693 23.4375 2.21693 23.2797C2.21693 22.9221 1.95112 22.4314 1.66259 22.2563C1.36312 22.0745 0.808221 22.0839 0.525228 22.2756ZM34.4329 25.0292L33.5824 25.9029L32.7502 25.0509L31.918 24.1989L32.7686 23.3223L33.6192 22.4458L34.4513 23.3006L35.2833 24.1554L34.4329 25.0292ZM12.4587 26.9067C13.5406 27.3984 13.4175 28.9911 12.2483 29.6285C11.7912 29.8777 10.8725 29.8765 10.4043 29.6261C9.75779 29.2803 9.16931 28.3494 9.05106 27.4853L9.01122 27.1943L9.5601 27.0163C10.6826 26.6524 11.8055 26.6099 12.4587 26.9067ZM21.7801 29.7494C20.3858 30.1383 19.3665 31.3095 19.1455 32.7765C18.7984 35.0802 20.7065 37.1821 22.9683 36.9875C24.383 36.8658 25.6382 35.8599 26.1098 34.47C26.3046 33.8959 26.3031 32.7389 26.1069 32.1489C25.7696 31.1346 24.913 30.2252 23.9441 29.8528C23.317 29.6118 22.4261 29.5691 21.7801 29.7494ZM23.346 32.1075C24.0065 32.4225 24.2364 33.4272 23.8034 34.1061C23.3284 34.8509 22.0648 34.8685 21.598 34.1367C21.2298 33.5593 21.2918 32.7993 21.7454 32.3335C22.1689 31.8983 22.7387 31.8179 23.346 32.1075Z" fill="#F4683F"/>
</svg>
