<svg width="34" height="34" viewBox="0 0 34 34" fill="none" xmlns="http://www.w3.org/2000/svg">
<path d="M28.3333 0.335938C29.2533 0.335938 30 1.0826 30 2.0026V8.26427L26.6667 11.5976V3.66927H3.33333V30.3359H26.6667V25.7393L30 22.4059V32.0026C30 32.9226 29.2533 33.6693 28.3333 33.6693H1.66667C0.746667 33.6693 0 32.9226 0 32.0026V2.0026C0 1.0826 0.746667 0.335938 1.66667 0.335938H28.3333ZM31.2967 11.6826L33.6533 14.0393L20.69 27.0026L18.33 26.9993L18.3333 24.6459L31.2967 11.6826ZM16.6667 17.0026V20.3359H8.33333V17.0026H16.6667ZM21.6667 10.3359V13.6693H8.33333V10.3359H21.6667Z" fill="#F4683F"/>
</svg>
