<svg width="23" height="17" viewBox="0 0 23 17" fill="none" xmlns="http://www.w3.org/2000/svg">
<path fill-rule="evenodd" clip-rule="evenodd" d="M4.95926 0.0299186C4.45336 0.115195 3.95534 0.367298 3.59962 0.718165C3.35359 0.960862 3.09444 1.37655 2.98015 1.7118C2.88291 1.997 2.8804 2.05943 2.86605 4.55943L2.85134 7.11546L2.39267 7.1404C1.70605 7.17775 1.23047 7.36818 0.769371 7.7904C0.483949 8.05177 0.234913 8.4317 0.103986 8.80555L0 9.10238V12.8372C0 16.5401 0.000809586 16.573 0.0927419 16.6945C0.258886 16.9141 0.416214 17 0.652162 17C0.888019 17 1.04526 16.9142 1.21158 16.6947C1.28921 16.5923 1.3068 16.4932 1.31953 16.0873L1.33477 15.6024H11.4915H21.6483L21.6635 16.0873C21.6763 16.4932 21.6939 16.5923 21.7715 16.6947C21.9378 16.9142 22.0951 17 22.3309 17C22.5668 17 22.7241 16.9141 22.8903 16.6945C22.9819 16.5735 22.9832 16.529 22.9957 12.9703C23.0068 9.81117 22.9995 9.32928 22.9368 9.04878C22.8416 8.62266 22.655 8.26705 22.3552 7.94027C21.8816 7.424 21.3414 7.17891 20.5904 7.13951L20.1317 7.11546L20.117 4.55943C20.1027 2.05943 20.1002 1.997 20.0029 1.7118C19.7414 0.944756 19.1322 0.354431 18.328 0.08884C18.0927 0.0111505 17.7657 0.00684677 11.6265 0.000590789C8.07668 -0.00300307 5.07647 0.0101746 4.95926 0.0299186ZM17.9655 1.38556C18.1372 1.43587 18.2647 1.5152 18.4201 1.6685C18.7823 2.0258 18.7778 1.98693 18.7778 4.74014V7.12797H17.5184C16.8258 7.12797 16.2591 7.11839 16.2591 7.10672C16.2591 7.09505 16.3097 6.93679 16.3715 6.75505C16.4736 6.45512 16.4839 6.35627 16.4839 5.68457C16.4839 5.15357 16.4638 4.86752 16.4127 4.6719C16.1986 3.85286 15.4881 3.14917 14.6605 2.93651C14.266 2.83513 8.71711 2.83513 8.32257 2.93651C7.49792 3.14841 6.78369 3.85578 6.57037 4.6719C6.51928 4.86752 6.49913 5.15357 6.49913 5.68457C6.49913 6.35627 6.50952 6.45512 6.61157 6.75505C6.67341 6.93679 6.72401 7.09505 6.72401 7.10672C6.72401 7.11839 6.1573 7.12797 5.46466 7.12797H4.20532V4.74014C4.20532 2.69195 4.21544 2.31863 4.27647 2.11596C4.37376 1.79269 4.64577 1.51321 4.97073 1.40255C5.20794 1.32176 5.45481 1.31852 11.4721 1.31714C17.0366 1.31586 17.7533 1.3234 17.9655 1.38556ZM14.4835 4.28265C14.7144 4.38617 14.9456 4.61418 15.0505 4.84201C15.1174 4.98736 15.1328 5.13631 15.1337 5.64477C15.1346 6.23887 15.1287 6.28066 15.011 6.50965C14.8731 6.77773 14.5998 7.00906 14.3352 7.08156C14.1065 7.14421 8.87655 7.14421 8.64789 7.08156C8.38329 7.00906 8.10997 6.77773 7.97211 6.50965C7.85441 6.28066 7.84847 6.23887 7.84942 5.64477C7.85054 4.94273 7.89597 4.78074 8.16673 4.51364C8.4965 4.18833 8.35522 4.20159 11.4915 4.20159C14.1179 4.20159 14.3145 4.20692 14.4835 4.28265ZM20.8568 8.50544C21.1071 8.57399 21.3895 8.80928 21.5189 9.05703C21.6313 9.27222 21.6341 9.3004 21.6473 10.3322L21.6608 11.3874H11.4915H1.32227L1.33576 10.3322C1.34894 9.30612 1.3524 9.27116 1.46192 9.06134C1.59033 8.81545 1.82075 8.61348 2.07464 8.52417C2.22054 8.47288 3.74575 8.46267 11.469 8.46121C17.6878 8.4601 20.7438 8.47447 20.8568 8.50544ZM21.6563 13.4949V14.2713H11.4915H1.32681V13.4949V12.7184H11.4915H21.6563V13.4949Z" fill="#F4683F"/>
</svg>
