<svg width="20" height="18" viewBox="0 0 20 18" fill="none" xmlns="http://www.w3.org/2000/svg">
<path fill-rule="evenodd" clip-rule="evenodd" d="M18.9264 0.0564046C18.819 0.0868363 16.8059 0.899082 14.4529 1.86145C12.0998 2.82378 8.05605 4.47752 5.46665 5.53639C2.87726 6.59531 0.660911 7.51274 0.541434 7.57516C0.303886 7.69925 0.0520766 7.95997 0.0130061 8.12228C-0.0516945 8.39115 0.129788 8.73352 0.45083 8.94821C0.667397 9.09303 5.01207 10.6423 5.12194 10.6139C5.15796 10.6046 7.74059 8.90641 10.8611 6.84023C13.9816 4.77405 16.5835 3.0658 16.6432 3.04413C16.794 2.98934 16.996 3.01728 17.0456 3.09982C17.157 3.28543 17.3657 3.08124 10.2242 9.77296C8.01846 11.8398 7.85925 11.9978 7.92067 12.0594C7.957 12.0958 9.60421 13.4154 11.5812 14.9919C14.2652 17.1321 15.2252 17.876 15.371 17.9288C15.6547 18.0315 15.9917 18.0226 16.2306 17.9061C16.4153 17.816 16.6997 17.5401 16.7908 17.3626C16.835 17.2765 20.0014 0.683208 20 0.54539C19.9982 0.373636 19.8567 0.133197 19.7167 0.0639004C19.5506 -0.0182286 19.2016 -0.0215283 18.9264 0.0564046Z" fill="#C0C2D7"/>
</svg>
