<svg width="34" height="42" viewBox="0 0 34 42" fill="none" xmlns="http://www.w3.org/2000/svg">
<path fill-rule="evenodd" clip-rule="evenodd" d="M13.1529 0.0031863C8.54536 0.0246821 4.61121 0.0786373 3.79205 0.131574C3.55235 0.147061 3.50761 0.155469 3.28616 0.226639C2.99371 0.32065 2.72655 0.43065 2.52716 0.539147C1.64846 1.01725 0.797077 1.94014 0.415275 2.82837C0.250803 3.21099 0.117638 3.68692 0.0862274 4.00433C0.0546787 4.32323 0.0333002 5.29617 0.016367 7.18379C-0.00592814 9.67006 -0.0056341 11.9263 0.018408 22.9819L0.0387659 32.3399L0.202062 32.7024C0.374992 33.0864 0.479964 33.2846 0.63565 33.521C0.848223 33.8439 1.15543 34.1846 1.40543 34.3749C1.47378 34.4269 1.67683 34.5513 1.85664 34.6513C2.03646 34.7513 2.19019 34.8397 2.19828 34.8478C2.20636 34.8558 2.22429 35.5224 2.23813 36.3291C2.289 39.2953 2.28961 39.3022 2.54988 39.8752C2.76797 40.3553 3.02272 40.7224 3.3655 41.0504C3.67721 41.3487 3.86597 41.4738 4.4806 41.79L4.88892 42H6.87262H8.85633L9.24903 41.8026C9.46503 41.694 9.7079 41.5652 9.78876 41.5162C10.4162 41.1361 10.8853 40.5935 11.214 39.8673C11.4618 39.32 11.4758 39.1789 11.5178 36.8117C11.5275 36.2704 11.5402 35.6624 11.5461 35.4606L11.5568 35.0937H17.0014H22.446L22.4567 35.4606C22.4626 35.6624 22.4792 36.4374 22.4936 37.1829C22.535 39.3271 22.5338 39.3177 22.855 39.9713C23.1633 40.5984 23.4763 40.9924 23.9439 41.342C24.2165 41.5457 24.6013 41.7589 24.9018 41.8726C25.1909 41.982 25.5527 41.9993 27.5575 41.9997L29.1108 42L29.5034 41.7984C30.1388 41.4721 30.3345 41.3425 30.6458 41.042C31.0299 40.6712 31.3357 40.2021 31.5464 39.6607C31.7035 39.2569 31.7186 39.0294 31.7642 36.3739C31.7784 35.5444 31.7938 34.8597 31.7983 34.8524C31.8028 34.8451 31.937 34.7672 32.0965 34.6793C32.5606 34.4237 32.7197 34.3045 32.9818 34.0163C33.3011 33.6654 33.5395 33.2852 33.7932 32.7226L33.9657 32.3399L33.9875 21.8596C34.0168 7.74107 33.9985 4.34738 33.8903 3.81134C33.7405 3.06891 33.3701 2.29776 32.8759 1.69924C32.5675 1.32581 32.1116 0.927746 31.7034 0.675425C31.5063 0.55365 31.111 0.359843 30.9077 0.285376C30.5756 0.163723 30.3482 0.113997 30.0431 0.0963346C29.6314 0.072508 28.3981 0.0463332 26.7393 0.0262359C25.3809 0.0097645 15.3778 -0.00720763 13.1529 0.0031863ZM24.041 2.65186C26.3385 2.66034 28.4478 2.67532 28.7284 2.68517C29.7996 2.72275 30.0658 2.76461 30.4024 2.94838C30.9838 3.26583 31.3059 3.76919 31.4167 4.53351C31.4638 4.85814 31.478 5.21814 31.4783 6.09173L31.4785 6.9507H16.9989H2.51927L2.52963 5.94498C2.5398 4.95854 2.5509 4.72875 2.60305 4.42584C2.66001 4.09491 2.78996 3.7604 2.9459 3.54329C3.03358 3.4212 3.25029 3.20752 3.38907 3.10631C3.4414 3.06815 3.62289 2.95025 3.79237 2.8443L4.10055 2.65171L6.04091 2.64723C11.0931 2.6356 20.2761 2.63796 24.041 2.65186ZM31.4785 14.0642V18.536H17.0014H2.52425V14.0642V9.59235H17.0014H31.4785V14.0642ZM31.478 25.0667C31.4774 28.9242 31.4625 30.7273 31.4269 31.2521C31.3993 31.6592 31.3699 31.8134 31.288 31.9803C31.1579 32.2452 30.9958 32.3195 30.4494 32.3642C29.5954 32.4341 26.9266 32.4514 17.0014 32.4514C5.79136 32.4514 3.78239 32.4326 3.20186 32.3222C2.81564 32.2487 2.66075 32.0474 2.60236 31.5431C2.54554 31.0521 2.53831 30.4872 2.52944 25.835L2.52058 21.1949H16.9996H31.4785L31.478 25.0667ZM7.83016 25.528C7.3954 25.607 7.07184 25.8698 6.86488 26.3121C6.77622 26.5016 6.74025 26.6482 6.7394 26.8235C6.7363 27.4614 7.36793 28.1313 7.98128 28.1407C8.1588 28.1434 8.2725 28.1158 8.46558 28.0231C9.00556 27.764 9.35464 27.1469 9.25346 26.6304C9.19901 26.3524 9.01874 26.0327 8.80764 25.8396C8.67921 25.7222 8.44827 25.5982 8.27532 25.554C8.14496 25.5207 7.93726 25.5085 7.83016 25.528ZM25.8109 25.5291C25.5885 25.569 25.3591 25.6832 25.1992 25.8338C24.9181 26.0985 24.7334 26.4909 24.7334 26.8235C24.7334 27.2677 25.0558 27.7909 25.4447 27.9781C25.7866 28.1426 26.0456 28.1774 26.2992 28.0931C26.7809 27.9328 27.1817 27.458 27.2575 26.9577C27.3116 26.6011 27.1289 26.1535 26.8034 25.8449C26.5492 25.6039 26.1329 25.4715 25.8109 25.5291ZM8.97016 36.721C8.96497 37.7587 8.95525 38.3914 8.94335 38.4673C8.84635 39.0859 8.61285 39.3033 7.96399 39.3793C7.7011 39.41 6.04851 39.41 5.79038 39.3792C5.44815 39.3384 5.25029 39.2638 5.0948 39.117C4.92713 38.9587 4.84832 38.7485 4.80666 38.3483C4.78588 38.1489 4.7603 35.1684 4.77895 35.1199C4.78786 35.0967 5.02876 35.0937 6.88367 35.0937H8.97832L8.97016 36.721ZM29.2205 36.5958C29.2196 38.1244 29.2106 38.3843 29.1491 38.6591C29.0682 39.0202 28.8519 39.2448 28.5035 39.3293C28.2492 39.391 28.0473 39.4015 27.1198 39.4015C26.1659 39.4015 25.9752 39.3907 25.7194 39.322C25.3664 39.2273 25.1701 39.0136 25.0948 38.6424C25.0375 38.3598 25.0271 38.0383 25.027 36.5483L25.0269 35.0936L27.1241 35.098L29.2213 35.1024L29.2205 36.5958Z" fill="#F4683F"/>
</svg>
