<svg width="24" height="23" viewBox="0 0 24 23" fill="none" xmlns="http://www.w3.org/2000/svg">
<path fill-rule="evenodd" clip-rule="evenodd" d="M11.0728 0.0686911C5.75576 0.721735 1.57694 4.96033 1.02667 10.2586C0.945135 11.0439 0.994522 12.5306 1.12714 13.2811C1.33705 14.4694 1.6844 15.5148 2.22429 16.5831L2.49555 17.12L1.68725 20.0542C1.24267 21.668 0.886043 22.9936 0.894685 23C0.903375 23.0063 2.2574 22.6579 3.90365 22.2256C6.30023 21.5964 6.92088 21.4488 7.01753 21.4855C7.08391 21.5106 7.39892 21.6487 7.71755 21.7923C8.75241 22.2586 9.83918 22.5679 10.9827 22.7216C11.7775 22.8284 13.1722 22.8278 13.9453 22.7203C16.4828 22.3673 18.7499 21.2521 20.5367 19.478C21.4711 18.5503 22.0924 17.7017 22.684 16.5455C23.2167 15.5042 23.5926 14.3691 23.8026 13.1673C23.9253 12.4648 23.9251 10.4007 23.8023 9.66455C23.5946 8.42088 23.2742 7.42726 22.7266 6.32975C21.1684 3.20652 18.2908 0.980121 14.8502 0.235719C13.7777 0.00367466 12.1782 -0.0670518 11.0728 0.0686911ZM14.0901 2.0546C15.475 2.30914 16.6234 2.76896 17.7592 3.52368C19.6983 4.81221 21.1257 6.81308 21.6899 9.03353C22.1043 10.6642 22.0717 12.5162 21.6011 14.0842C20.8402 16.6194 19.0267 18.7535 16.6534 19.9062C15.2737 20.5763 13.997 20.8685 12.4487 20.8685C10.6741 20.8685 9.10102 20.4405 7.49552 19.5209L7.22517 19.3661L5.44842 19.8301C4.4712 20.0852 3.66425 20.2867 3.65517 20.2776C3.64609 20.2687 3.84659 19.5087 4.10072 18.5888C4.3548 17.6689 4.56457 16.8825 4.56684 16.8412C4.5691 16.7998 4.44416 16.5609 4.28919 16.3101C2.01235 12.6271 2.6091 7.7701 5.71583 4.69834C7.26123 3.17034 9.21771 2.23132 11.4107 1.96501C12.0031 1.89309 13.48 1.94246 14.0901 2.0546ZM7.94189 6.24127C7.6627 6.37865 7.15256 6.97747 6.93927 7.41819C6.52032 8.28389 6.52887 9.37516 6.96249 10.3856C7.49537 11.6273 8.88962 13.3904 10.266 14.563C11.2308 15.3848 12.0369 15.8664 13.2211 16.3283C14.4309 16.8002 14.663 16.8546 15.466 16.8543C16.0976 16.854 16.1979 16.8421 16.4915 16.7321C16.9744 16.5513 17.3348 16.3235 17.6938 15.9722C17.9724 15.6997 18.0285 15.6144 18.1197 15.3245C18.2334 14.963 18.2984 14.3813 18.2476 14.18C18.221 14.0747 18.0846 13.9892 17.3987 13.6479C16.142 13.0226 15.6355 12.8074 15.4203 12.8074C15.2439 12.8074 15.2138 12.8289 15.0006 13.1073C14.5131 13.7437 14.0658 14.2365 13.9493 14.2656C13.8097 14.3004 13.5355 14.2006 12.902 13.8844C11.8764 13.3725 11.0397 12.6879 10.3203 11.7722C9.92878 11.2738 9.57621 10.7059 9.57621 10.5736C9.57621 10.517 9.75774 10.2353 9.97962 9.94764C10.4144 9.38389 10.5418 9.17354 10.5418 9.0187C10.5418 8.96438 10.4475 8.6988 10.3322 8.42856C10.217 8.15827 9.98459 7.60249 9.81577 7.19344C9.60648 6.68646 9.45958 6.40005 9.35424 6.29377L9.19965 6.13782L8.67585 6.13787C8.23677 6.13787 8.11805 6.15462 7.94189 6.24127Z" fill="#C0C2D7"/>
</svg>
