<svg width="29" height="20" viewBox="0 0 29 20" fill="none" xmlns="http://www.w3.org/2000/svg">
<path fill-rule="evenodd" clip-rule="evenodd" d="M11.9788 0.0100056C7.11958 0.161129 4.95137 0.311765 3.82601 0.576596C2.95294 0.782028 2.24144 1.18623 1.61114 1.83485C0.944093 2.52122 0.639478 3.11109 0.420941 4.13987C-0.141002 6.78455 -0.140153 13.2102 0.422527 15.8582C0.639875 16.8812 0.954286 17.4897 1.60956 18.1557C2.2659 18.8228 3.0679 19.2519 4.01403 19.4422C5.97593 19.8368 12.714 20.0993 17.4153 19.9642C22.0152 19.8321 24.3567 19.6541 25.4002 19.3571C26.7937 18.9605 27.8999 17.9436 28.3755 16.6221C29.0985 14.6127 29.225 7.28546 28.59 4.2016C28.3623 3.09593 27.9345 2.31004 27.2026 1.65243C26.5577 1.07312 25.8502 0.721492 24.9819 0.548872C24.0281 0.359197 21.97 0.18869 19.3973 0.086136C17.9571 0.0287406 13.0091 -0.0220492 11.9788 0.0100056ZM17.5285 2.19834C22.0099 2.32548 24.3105 2.51764 25.0228 2.82438C25.591 3.06907 26.0053 3.48226 26.1995 3.99795C26.3496 4.39647 26.4972 5.23412 26.5992 6.26561C26.725 7.5386 26.7434 11.9848 26.6283 13.3253C26.4944 14.8852 26.327 15.8118 26.1033 16.231C25.8165 16.7685 25.2403 17.1818 24.5736 17.3283C22.9864 17.6769 16.2053 17.9241 11.6956 17.7977C8.05115 17.6956 5.51654 17.5301 4.51713 17.3292C3.47615 17.1198 2.86392 16.5025 2.64074 15.437C2.14149 13.0536 2.14149 6.93692 2.64074 4.55355C2.76182 3.97554 2.96421 3.58211 3.31085 3.25089C3.84957 2.73607 4.34905 2.59626 6.18795 2.44557C9.23275 2.19601 13.8768 2.09481 17.5285 2.19834ZM11.6107 14.3936L19.4688 9.9857C19.4688 9.9857 19.4688 9.9857 11.6107 5.60486V14.3936Z" fill="#C0C2D7"/>
</svg>
